<mxfile host="app.diagrams.net" modified="2023-06-12T00:38:41.617Z" agent="Mozilla/5.0 (Windows NT 10.0; Win64; x64) AppleWebKit/537.36 (KHTML, like Gecko) Chrome/114.0.0.0 Safari/537.36" etag="B4-7L_rN1UnpMpqTJjIi" version="21.3.8" type="device">
  <diagram name="Página-1" id="6G99Uoo3oqIQ95XDdRiJ">
    <mxGraphModel dx="1050" dy="541" grid="1" gridSize="10" guides="1" tooltips="1" connect="1" arrows="1" fold="1" page="1" pageScale="1" pageWidth="827" pageHeight="1169" math="0" shadow="0">
      <root>
        <mxCell id="0" />
        <mxCell id="1" parent="0" />
        <mxCell id="zpURzj29c-1hf_4U76ap-1" value="channels" style="swimlane;childLayout=stackLayout;horizontal=1;startSize=30;horizontalStack=0;rounded=1;fontSize=14;fontStyle=0;strokeWidth=2;resizeParent=0;resizeLast=1;shadow=0;dashed=0;align=center;" parent="1" vertex="1">
          <mxGeometry x="320" y="40" width="200" height="250" as="geometry" />
        </mxCell>
        <mxCell id="zpURzj29c-1hf_4U76ap-2" value="id_channel: ObjectId()&#xa;name: String&#xa;description: String&#xa;created_by:   [&#xa;                      {&#xa;                      user_id: ObjectId()&#xa;                      created_at: Date()&#xa;                      }&#xa;                      ]&#xa;subscribers:   [&#xa;                      {&#xa;                      user_id: ObjectId(),&#xa;                      name: String&#xa;                      }&#xa;                      ]" style="align=left;strokeColor=none;fillColor=none;spacingLeft=4;fontSize=12;verticalAlign=top;resizable=0;rotatable=0;part=1;" parent="zpURzj29c-1hf_4U76ap-1" vertex="1">
          <mxGeometry y="30" width="200" height="220" as="geometry" />
        </mxCell>
        <mxCell id="zpURzj29c-1hf_4U76ap-3" value="playlists" style="swimlane;childLayout=stackLayout;horizontal=1;startSize=30;horizontalStack=0;rounded=1;fontSize=14;fontStyle=0;strokeWidth=2;resizeParent=0;resizeLast=1;shadow=0;dashed=0;align=center;" parent="1" vertex="1">
          <mxGeometry x="320" y="310" width="200" height="220" as="geometry" />
        </mxCell>
        <mxCell id="zpURzj29c-1hf_4U76ap-4" value="id_playlist: ObjectId(),&#xa;name: String&#xa;created_by:   [&#xa;                      {&#xa;                      user_id: ObjectId()&#xa;                      created_at: Date()&#xa;                      }&#xa;                      ]                            &#xa;status: ENUM&#xa;belonging_videos: &#xa;                      [&#xa;                      {video_id: ObjectId()} &#xa;                      ]" style="align=left;strokeColor=none;fillColor=none;spacingLeft=4;fontSize=12;verticalAlign=top;resizable=0;rotatable=0;part=1;" parent="zpURzj29c-1hf_4U76ap-3" vertex="1">
          <mxGeometry y="30" width="200" height="190" as="geometry" />
        </mxCell>
        <mxCell id="zpURzj29c-1hf_4U76ap-5" value="comments" style="swimlane;childLayout=stackLayout;horizontal=1;startSize=30;horizontalStack=0;rounded=1;fontSize=14;fontStyle=0;strokeWidth=2;resizeParent=0;resizeLast=1;shadow=0;dashed=0;align=center;" parent="1" vertex="1">
          <mxGeometry x="40" y="250" width="200" height="270" as="geometry" />
        </mxCell>
        <mxCell id="zpURzj29c-1hf_4U76ap-6" value="id_comentario: ObjectId()&#xa;text: String&#xa;created_by: [&#xa;          {&#xa;          user_id: ObjectId()&#xa;          created_at: Date()&#xa;          }&#xa;          ]&#xa;video_id: ObjectId(,&#xa;valued_by: [&#xa;          {&#xa;          user_id: ObjectId()&#xa;          like_dislike_value: Boolean&#xa;          created_at: new Date()&#xa;          }&#xa;          ]" style="align=left;strokeColor=none;fillColor=none;spacingLeft=4;fontSize=12;verticalAlign=top;resizable=0;rotatable=0;part=1;" parent="zpURzj29c-1hf_4U76ap-5" vertex="1">
          <mxGeometry y="30" width="200" height="240" as="geometry" />
        </mxCell>
        <mxCell id="zpURzj29c-1hf_4U76ap-13" value="users" style="swimlane;childLayout=stackLayout;horizontal=1;startSize=30;horizontalStack=0;rounded=1;fontSize=14;fontStyle=0;strokeWidth=2;resizeParent=0;resizeLast=1;shadow=0;dashed=0;align=center;" parent="1" vertex="1">
          <mxGeometry x="40" y="40" width="200" height="160" as="geometry" />
        </mxCell>
        <mxCell id="zpURzj29c-1hf_4U76ap-14" value="id_user: ObjectId(),&#xa;email: String&#xa;password: String&#xa;user_name: String&#xa;birth_date: Date()&#xa;gender: String&#xa;country: String&#xa;postal_Code: String" style="align=left;strokeColor=none;fillColor=none;spacingLeft=4;fontSize=12;verticalAlign=top;resizable=0;rotatable=0;part=1;" parent="zpURzj29c-1hf_4U76ap-13" vertex="1">
          <mxGeometry y="30" width="200" height="130" as="geometry" />
        </mxCell>
        <mxCell id="_BxTgPhgJxO853Yw_gEB-1" value="YouTube" style="text;strokeColor=none;align=center;fillColor=none;html=1;verticalAlign=middle;whiteSpace=wrap;rounded=0;" parent="1" vertex="1">
          <mxGeometry x="384" width="60" height="30" as="geometry" />
        </mxCell>
        <mxCell id="_BxTgPhgJxO853Yw_gEB-10" value="videos" style="swimlane;childLayout=stackLayout;horizontal=1;startSize=30;horizontalStack=0;rounded=1;fontSize=14;fontStyle=0;strokeWidth=2;resizeParent=0;resizeLast=1;shadow=0;dashed=0;align=center;" parent="1" vertex="1">
          <mxGeometry x="600" y="40" width="200" height="480" as="geometry" />
        </mxCell>
        <mxCell id="_BxTgPhgJxO853Yw_gEB-11" value="id_video: ObjectId()&#xa;title: String&#xa;description: String&#xa;size: BinData()&#xa;file_name: String&#xa;duration: Decimal&#xa;thumbnail: BinData()&#xa;views_amount: Integer&#xa;likes_amount: Integer&#xa;dislikes_amount: Integer&#xa;status: ENUM&#xa;tags:  [&#xa;          {&#xa;          id_tag: ObjectId()&#xa;          name: String}&#xa;          ]&#xa;&#xa;posted_by:&#xa;          [&#xa;          {&#xa;          user_id: ObjectId()&#xa;          created_at: Date()&#xa;          }&#xa;          ]&#xa;valued_by: [&#xa;          {&#xa;          user_id: ObjectId()&#xa;          like_dislike_value: Boolean&#xa;          created_at:  Date()&#xa;          }&#xa;          ]" style="align=left;strokeColor=none;fillColor=none;spacingLeft=4;fontSize=12;verticalAlign=top;resizable=0;rotatable=0;part=1;" parent="_BxTgPhgJxO853Yw_gEB-10" vertex="1">
          <mxGeometry y="30" width="200" height="450" as="geometry" />
        </mxCell>
      </root>
    </mxGraphModel>
  </diagram>
</mxfile>
